<?xml version="1.0" encoding="UTF-8"?>
<!DOCTYPE svg PUBLIC "-//W3C//DTD SVG 1.1//EN" "http://www.w3.org/Graphics/SVG/1.1/DTD/svg11.dtd">
<!-- Creator: CorelDRAW 2019 (64-Bit) -->
<svg xmlns="http://www.w3.org/2000/svg" xml:space="preserve" width="80mm" height="40mm" version="1.1" style="shape-rendering:geometricPrecision; text-rendering:geometricPrecision; image-rendering:optimizeQuality; fill-rule:evenodd; clip-rule:evenodd"
viewBox="0 0 8000 4000"
 xmlns:xlink="http://www.w3.org/1999/xlink">
 <defs>
  <style type="text/css">
   <![CDATA[
    .str0 {stroke:#FEFEFE;stroke-width:20;stroke-miterlimit:22.9256}
    .fil1 {fill:#FEFEFE}
    .fil6 {fill:#000066}
    .fil5 {fill:#003399}
    .fil4 {fill:#115586}
    .fil7 {fill:#336699}
    .fil8 {fill:#596D80}
    .fil3 {fill:#6699FE}
    .fil9 {fill:#B5B5CA}
    .fil0 {fill:#DBDDDD}
    .fil2 {fill:#E6E6E6}
    .fil10 {fill:#FEFEFE}
   ]]>
  </style>
 </defs>
 <g id="Capa_x0020_1">
  <metadata id="CorelCorpID_0Corel-Layer"/>
  <g id="_2419039467536">
   <path class="fil0" d="M6237.08 3402.14l-36.1 25.69c-12.8,9.21 -23.32,16.18 -35.87,24.89 -69.72,48.38 -159.12,91.44 -241.06,121.35 -125.96,45.97 -255.51,65.75 -390.28,64.82 -4.77,-0.03 -9.63,0.08 -14.4,-0.05 -7.87,-0.22 7.2,0.06 -12.72,0.34 -36.26,0.38 -54.75,-3.01 -91.84,-6.18 -7.31,-1.78 -4.86,-2.38 -14.69,-3.57l-85.51 -15.06c-141.9,-29.27 -281.14,-91.1 -397.16,-171.39 -30.45,-21.07 -70.04,-50.58 -97.05,-74.55 -7.66,-6.79 -21.32,-17.81 -26.89,-28.29 12.98,12.76 -48.44,-32.27 -68.11,-66.49 -9.51,-5.58 -43.64,-48.21 -52.43,-59.71 -91.64,-119.9 -145.75,-222.16 -192.29,-370.01 -16.48,-52.36 -33.76,-133.25 -38.55,-190.93 -5.7,-31.04 -9.6,-72.94 -7.73,-99.31 0.34,-184.33 26.4,-318.35 90.58,-470.5 27.15,-64.39 63.86,-129.5 99.37,-181.28 21.01,-30.63 80.96,-110.99 108.4,-136.46 6.19,-5.74 12.66,-11.22 16.41,-18.68 -14.2,4.94 -100.92,90.69 -112.91,104.34l-33.29 38.25c-88.55,100.46 -166.53,244.01 -206.68,368.97 -78.49,244.28 -74.28,504 13.63,737.92 48.63,129.38 102.4,216.5 183.1,318.73 36.03,45.64 65.4,71.92 105.26,110.91 172.24,168.5 459.53,292.57 710.21,296.1 96.89,1.37 176.79,-2.13 266.44,-20.47 201.21,-41.16 387.54,-134.53 534.76,-272.08 7.8,-7.29 23.15,-18.26 27.4,-27.3z"/>
   <ellipse class="fil1 str0" cx="5484.12" cy="2595.17" rx="1110.7" ry="1123.02"/>
   <path class="fil2" d="M3355.25 3082.62l-0.02 -474.35 539.66 0.13 -0.83 480.61 -538.81 -6.39zm-697.28 -474.25l539.89 0.8 -0.71 479.73 -7.11 0 -536.2 0 4.13 -480.53zm-688.61 2l526.34 -2.4 6.45 53.34c-1.07,119.9 6.3,330.69 -1.49,427.42 -60.21,7.86 -499.77,11 -539.67,-2.65 -1.78,-79.44 -0.53,-160.08 -0.6,-239.64l-0.37 -211.06c2.73,-33.51 -1.26,-14.29 9.34,-25.01zm1385.5 -614.22c80.28,0 497.8,-8.84 540.04,4.5l0.59 470.88c-37.52,14.82 -463.64,5.26 -539.5,5.26l-1.13 -480.64zm-696.67 0l539.76 0.91 -1.14 479.83 -530.2 0 -10 -0.01 1.58 -480.73zm-697.89 3.51c37.81,-8.83 465.87,-3.51 540.37,-3.51l0.22 478.92c-57.88,6.33 -508.18,8.45 -538.33,-3.21l-2.26 -472.2zm1394.92 -155.41l0.79 -460.19 536.21 0 2.49 480.33 -539.52 -0.13 0.03 -20.01zm-697.24 0l1.04 -460.19 538.9 0.4 -0.11 479.93 -540.77 0 0.94 -20.14zm1805.2 1550.16c-34.95,-44.9 -69.28,-92.25 -99.37,-145.13 -29.82,-52.45 -52.19,-107.15 -81.04,-160.57l-230.16 -0.26 -0.44 -479.68 132.47 -0.5 7.22 -130.99 -139.62 -0.61 -0.04 -479.92 285.28 -0.98c14.26,-20.92 74.64,-117.75 80.15,-135.15 -68.17,13.03 -283.68,4.19 -365.52,2.75l0.74 -479.24 534.11 0.64c9.07,14.84 4.33,-0.02 6.39,25.21 4.4,53.9 -6.55,187.47 1.72,253.99 24.57,-17.62 47.07,-39.52 72.39,-59.42 108.29,-85.05 78.6,-24.72 81.95,-182.1 0.73,-34.22 2.7,-29.26 10.56,-36.91l315.83 -2.02c64.94,-9.99 130,-32.39 202.66,-42.63 75.49,-10.63 152.7,-14.44 230.53,-12.99l-3.56 -100.47 -3761.36 0.68c-9.58,62.17 -3.37,509.09 -3.29,609.76 0.33,401.15 5.74,827.5 -0.14,1225.6 -2.89,195.1 37.33,329.37 274.81,330.85l1838.47 -0.95c198.04,0 413.38,-8 609.26,1.04z"/>
   <path class="fil3" d="M1740.77 707.98l0.54 140.74 3767.62 -1.29c-2.48,-92.9 4.26,-187.99 -0.6,-280.12 -2.28,-43.21 -11.24,-77.8 -30.87,-110.42 -18.25,-30.33 -54.99,-58.1 -61.95,-74.78 -38.46,-13.18 -50.46,-29.65 -104.85,-38.38 -53.81,-8.64 -398.53,-7.02 -431.06,-1.61 -11.94,96.2 5.26,205.29 -1.43,302.42 -7.87,114.15 -107.92,104.41 -213.57,104.53 -106.18,0.11 -199.75,12.26 -210.15,-98.55 -7.94,-84.59 12.44,-240.94 -3.61,-309.59l-1653.22 -0.97c-11.5,94.23 5.43,208.17 -1.64,304.6 -8.6,117.47 -106.02,104.42 -212.35,104.52 -100.31,0.08 -200.81,9.59 -211.32,-98.35 -9.53,-97.97 11.79,-214.87 -2.42,-309.87 -88.85,-5.71 -407.92,-9.6 -477,14.7 -59.37,20.89 -104.64,67.06 -129.72,119.37 -32.04,66.85 -23.08,155.72 -22.4,233.05z"/>
   <path class="fil4" d="M4713.4 1780.82c18.12,-32.22 110.25,-96.7 153.91,-123.32 57.83,-35.26 117.44,-67.45 186.24,-94.73 144.99,-57.48 311.25,-86.28 485.56,-75.37 230.04,14.4 442.5,99.5 610.95,231.06 60.45,47.21 96.85,87.28 145.75,135.23 76.74,75.23 164.33,219.36 214.76,347.28 55.32,140.33 84.04,314.23 71.71,482.86 -12.1,165.41 -57.81,312.18 -123.18,437.82 -49.65,95.4 -188.15,289.27 -251.95,314.03 -24.28,60.06 -269.27,188.96 -342.47,215.39 -387.96,140.11 -760.2,78.67 -1084.79,-160.32 -287.9,-211.98 -454.53,-592.62 -432.81,-955.21 13.72,-229.26 96.67,-439.47 226.65,-609.88 30.92,-40.54 102.64,-128.97 139.67,-144.84zm362.4 -397.3c-8.91,6.96 -144.84,59.47 -169.24,70.56 -34.7,15.78 -126.6,64.58 -147.32,85.25l0.73 -153.79c-7.86,7.65 -9.83,2.69 -10.56,36.91 -3.35,157.38 26.34,97.05 -81.95,182.1 -25.32,19.9 -47.82,41.8 -72.39,59.42 -8.27,-66.52 2.68,-200.09 -1.72,-253.99 -2.06,-25.23 2.68,-10.37 -6.39,-25.21 0,55.28 -0.05,110.56 -0.11,165.85 -0.07,73.58 10.98,111.04 -18.73,139.6l-150.49 170.4c-5.51,17.4 -65.89,114.23 -80.15,135.15 -31.77,75.24 -62.15,133.26 -91.61,221.04 -27.69,82.45 -43.75,168.08 -54.01,260.47l-7.22 130.99c16.65,200.15 29.12,308.55 98.13,480.44 28.85,53.42 51.22,108.12 81.04,160.57 30.09,52.88 64.42,100.23 99.37,145.13 35.22,35.34 59.17,71.88 94.93,107.48 32.56,32.41 71.26,64.97 109.35,94.9 73.03,57.38 154.26,112.98 252.37,156.41 207.43,91.81 427.68,143.2 688.69,112.25 989.45,-117.33 1408.86,-1217.72 935.43,-1940.75 -237.61,-362.87 -578.12,-569.27 -1034.96,-596.8 -77.83,-1.45 -155.04,2.36 -230.53,12.99 -72.66,10.24 -137.72,32.64 -202.66,42.63z"/>
   <polygon class="fil5" points="1742,999.5 5508.06,1001.24 5508.93,847.43 1741.31,848.72 "/>
   <polygon class="fil3" points="5508.06,1001.24 1742,999.5 1741.68,1143.18 5507.85,1143.5 "/>
   <path class="fil6" d="M3355.99 2476.79c75.86,0 501.98,9.56 539.5,-5.26l-0.59 -470.88c-42.24,-13.34 -459.76,-4.5 -540.04,-4.5l1.13 480.64z"/>
   <path class="fil6" d="M1962.56 2471.86c30.15,11.66 480.45,9.54 538.33,3.21l-0.22 -478.92c-74.5,0 -502.56,-5.32 -540.37,3.51l2.26 472.2z"/>
   <polygon class="fil7" points="2653.84,3088.9 3190.04,3088.9 3197.15,3088.9 3197.86,2609.17 2657.97,2608.37 "/>
   <polygon class="fil6" points="2656.61,2476.88 2666.61,2476.89 3196.81,2476.89 3197.95,1997.06 2658.19,1996.15 "/>
   <polygon class="fil6" points="2657.04,1864.39 3197.81,1864.39 3197.92,1384.46 2659.02,1384.06 2657.98,1844.25 "/>
   <polygon class="fil6" points="3355.19,1864.26 3894.71,1864.39 3892.22,1384.06 3356.01,1384.06 3355.22,1844.25 "/>
   <polygon class="fil6" points="3894.06,3089.01 3894.89,2608.4 3355.23,2608.27 3355.25,3082.62 "/>
   <path class="fil6" d="M4417.63 1860.62l150.49 -170.4c29.71,-28.56 18.66,-66.02 18.73,-139.6 0.06,-55.29 0.11,-110.57 0.11,-165.85l-534.11 -0.64 -0.74 479.24c81.84,1.44 297.35,10.28 365.52,-2.75z"/>
   <polygon class="fil8" points="2475.68,644.18 2690.79,645.45 2692.25,72.52 2477.75,71.82 "/>
   <polygon class="fil8" points="4561.71,646.09 4769.7,643.28 4771.22,74.54 4561.35,74.31 "/>
   <path class="fil7" d="M4191.86 2477.28c10.26,-92.39 26.32,-178.02 54.01,-260.47 29.46,-87.78 59.84,-145.8 91.61,-221.04l-285.28 0.98 0.04 479.92 139.62 0.61z"/>
   <path class="fil6" d="M4282.77 3088.71c-69.01,-171.89 -81.48,-280.29 -98.13,-480.44l-132.47 0.5 0.44 479.68 230.16 0.26z"/>
   <path class="fil6" d="M5075.8 1383.52l-315.83 2.02 -0.73 153.79c20.72,-20.67 112.62,-69.47 147.32,-85.25 24.4,-11.09 160.33,-63.6 169.24,-70.56z"/>
   <path class="fil9" d="M4561.71 646.09l-0.36 -571.78 209.87 0.23 -1.52 568.74c16.26,-24.52 11.24,-505.54 6.41,-570.21 -36.76,-14 -176.16,-9.21 -219.28,-2.65 -8.59,71.5 -2.27,331.02 -1.74,433.32 0.12,23.4 0.19,46.81 0.21,70.22 0.03,26.43 -4.07,52.91 6.41,72.13z"/>
   <path class="fil10" d="M5444.71 2565.07c-58.16,29.47 -11.45,109.38 45.47,79.63 44.01,-23.01 14.77,-110.17 -45.47,-79.63z"/>
   <path class="fil6" d="M1962.56 2471.86c30.15,11.66 480.45,9.54 538.33,3.21l-0.22 -478.92c-74.5,0 -502.56,-5.32 -540.37,3.51l2.26 472.2z"/>
   <path class="fil6" d="M1947.67 3086.95c31.16,11.82 496.58,9.67 556.4,3.25l-0.23 -485.61c-77,0 -519.42,-5.4 -558.51,3.56l2.34 478.8z"/>
  </g>
  <g id="_2419039496464">
   <path class="fil4" d="M5482.04 2718.35l-11.91 0c-221.15,0 -415.03,-180.97 -415.03,-400.74 0,-20.07 1.75,-85.12 15.08,-94.84 21.69,-15.8 67.25,-50.84 84.29,-68.98 23.32,-24.83 37.72,-33.75 61.1,-66.9 3.33,-4.73 6.49,-11 10.47,-15.62l157.8 35.01c53.12,11.38 106.33,22.91 159.72,33.68 107.42,21.68 221.05,45.46 333.45,53.63 13.97,29.08 20.24,90.47 20.24,125.51 0,84.25 -31.32,163.34 -76.74,226.77 -13.34,18.62 -44.65,53.95 -61.08,66.9 -15.63,12.33 -25.16,21.03 -42.89,33.03 -18.9,12.8 -42.87,26.16 -66.38,36.33 -48.93,21.15 -107.32,36.22 -168.12,36.22zm-494.86 -349.36c-15.48,-2.3 -25.69,-10.15 -32.8,-19.37 -9.3,-12.08 -9.08,-25.73 -9.08,-43.92 0.01,-18.47 -1.84,-31.11 7.41,-45.59 6.37,-9.99 18.21,-18.85 34,-21.48 0.44,23.96 -1.94,42.58 -2.54,65.59 -0.56,21.86 3.67,45.7 3.01,64.77zm982.89 -129.12c13.13,2.4 24.76,12.58 30.07,21.07 7.91,12.67 6.9,27.8 6.91,44.76 0,19.2 1.19,29.14 -8.6,43.07 -6.53,9.29 -17.04,17.73 -33.6,20.18 3.17,-40.76 5.6,-59.27 0.64,-100.36 -1.84,-15.25 2.43,-15.6 4.58,-28.72zm16.34 -112.74c2.07,-67.36 -17.31,-148.98 -43.72,-201.63 -14.65,-29.19 -27.63,-51.47 -45.06,-75.47 -10.99,-15.13 -43.63,-52.22 -56.84,-63.68 -21.55,-18.67 -41.15,-34.9 -68.39,-52.21 -24.34,-15.47 -50.33,-29.04 -80.22,-40.31 -29.77,-11.22 -61.42,-19.98 -95.57,-25.04 -15.61,-2.32 -41.89,-2.24 -54.73,-4.97 -7.49,-1.59 -9.44,-9.57 -19.68,-10.3 -10.96,-0.77 -14.83,6.06 -20.81,9.58 -5.78,-3.81 -12.18,-11.48 -18.11,-16.37 -25.62,-21.14 -33.07,-32.2 -67.59,-22 -29.87,8.82 -71.46,25.01 -94.29,39.72 -8.34,5.37 -11.89,9.77 -18.76,15.44 -7.4,6.11 -81.06,21.93 -153.05,79.16 -50.02,39.77 -86.43,80.14 -122.53,143.85 -31.11,54.9 -55.25,136.02 -55.25,210.84l1.61 58.21c-52.68,7.97 -99.11,53.83 -99.11,112.92l0 37.2c0,36.97 19.59,69.83 37.72,84.77 24.57,20.25 46.92,31.44 89.82,31.44 9.44,27.26 16.25,48.32 28.18,73.81 23.6,50.44 41.16,68.88 71.48,107.09 11.27,14.21 49.8,49.75 64.98,61.52 71.85,55.73 180.09,105.98 302.16,105.98l14.88 0c164.74,0 317.07,-88.74 401.48,-210.53 23.05,-33.26 37.39,-60.92 52.53,-99.25 21.42,-54.21 -0.5,-33.21 41.46,-40.45 8.46,-1.46 15.46,-3.45 23.3,-6.43 14.79,-5.63 28.71,-14.77 38.01,-23.03 40.15,-35.64 37.73,-74.54 37.73,-122.12 0,-57.57 -46.35,-105.81 -94.4,-112.82l2.77 -44.92z"/>
   <path class="fil4" d="M5954.58 2788.21c-11.92,-4.17 -27.55,-14 -40.76,-19.84 -13.53,-5.98 -27.52,-11.22 -42.16,-15.89 -25.87,-8.26 -71.08,-19.41 -100.11,-18.85 0.67,9.01 -22.62,124.25 -26.27,143.29 -27,140.64 -52.57,289.09 -81.41,427.19l-69.62 0.05 -236.15 0.03 -69.58 -0.16 -108.37 -570.67c-75.64,3.18 -143.2,32.3 -196.14,64 -107.92,64.61 -184.89,186.57 -199.03,317.45 -4.35,40.29 -2.48,85.7 -2.48,126.9 0,26.32 -1.28,107.97 0.3,127.71l1386.72 -0.07c2.58,-29.06 0.34,-69.12 0.34,-99.36 0,-98.53 6.36,-175.95 -30.67,-268.62 -9.81,-24.55 -21.2,-45.65 -33.48,-66.22 -28.7,-48.06 -75.73,-96.74 -122.22,-127.82l-22.65 -14.62c-3.93,-2.32 -4.35,-1.95 -6.26,-4.5z"/>
   <path class="fil2" d="M5482.04 2718.35c60.8,0 119.19,-15.07 168.12,-36.22 23.51,-10.17 47.48,-23.53 66.38,-36.33 17.73,-12 27.26,-20.7 42.89,-33.03 16.43,-12.95 47.74,-48.28 61.08,-66.9 45.42,-63.43 76.74,-142.52 76.74,-226.77 0,-35.04 -6.27,-96.43 -20.24,-125.51 -112.4,-8.17 -226.03,-31.95 -333.45,-53.63 -53.39,-10.77 -106.6,-22.3 -159.72,-33.68l-157.8 -35.01c-3.98,4.62 -7.14,10.89 -10.47,15.62 -23.38,33.15 -37.78,42.07 -61.1,66.9 -17.04,18.14 -62.6,53.18 -84.29,68.98 -13.33,9.72 -15.08,74.77 -15.08,94.84 0,219.77 193.88,400.74 415.03,400.74l11.91 0z"/>
   <path class="fil6" d="M5358.1 3304.19l236.15 -0.03c-8.01,-43.17 -13.61,-88.4 -20.23,-132.02l-37.95 -247.89c-1.62,-7.29 -2.46,-4.63 1.91,-11.95l52.41 -97.32 -228.43 0.12c2.74,8.82 44.56,82.21 52.92,98.03 3.93,7.45 2.58,4.83 0.91,13.73l-7.55 49.22c-3.38,22.06 -6.61,43.65 -10.01,65.78 -6.7,43.74 -13.26,87.85 -20.04,131.7 -6.61,42.76 -11.84,88.63 -20.09,130.63z"/>
   <path class="fil2" d="M4987.18 2368.99c0.66,-19.07 -3.57,-42.91 -3.01,-64.77 0.6,-23.01 2.98,-41.63 2.54,-65.59 -15.79,2.63 -27.63,11.49 -34,21.48 -9.25,14.48 -7.4,27.12 -7.41,45.59 0,18.19 -0.22,31.84 9.08,43.92 7.11,9.22 17.32,17.07 32.8,19.37z"/>
   <path class="fil2" d="M5970.07 2239.87c-2.15,13.12 -6.42,13.47 -4.58,28.72 4.96,41.09 2.53,59.6 -0.64,100.36 16.56,-2.45 27.07,-10.89 33.6,-20.18 9.79,-13.93 8.6,-23.87 8.6,-43.07 -0.01,-16.96 1,-32.09 -6.91,-44.76 -5.31,-8.49 -16.94,-18.67 -30.07,-21.07z"/>
  </g>
 </g>
</svg>
