<?xml version="1.0" encoding="UTF-8"?>
<!DOCTYPE svg PUBLIC "-//W3C//DTD SVG 1.1//EN" "http://www.w3.org/Graphics/SVG/1.1/DTD/svg11.dtd">
<!-- Creator: CorelDRAW 2019 (64-Bit) -->
<svg xmlns="http://www.w3.org/2000/svg" xml:space="preserve" width="15mm" height="8mm" version="1.1" style="shape-rendering:geometricPrecision; text-rendering:geometricPrecision; image-rendering:optimizeQuality; fill-rule:evenodd; clip-rule:evenodd"
viewBox="0 0 1500 800"
 xmlns:xlink="http://www.w3.org/1999/xlink">
 <defs>
  <style type="text/css">
   <![CDATA[
    .fil6 {fill:#000066}
    .fil4 {fill:#003399}
    .fil3 {fill:#115586}
    .fil7 {fill:#336699}
    .fil8 {fill:#586C80}
    .fil9 {fill:#596D80}
    .fil2 {fill:#6599FD}
    .fil10 {fill:#9EA3B7}
    .fil5 {fill:#DDDDDD}
    .fil1 {fill:#E5E5E5}
    .fil0 {fill:#FDFDFD}
   ]]>
  </style>
 </defs>
 <g id="Capa_x0020_1">
  <metadata id="CorelCorpID_0Corel-Layer"/>
  <g id="_2343607107248">
   <path class="fil0" d="M931.42 671.25c-13.72,-20 16.11,-28.91 12.99,-1.92l-12.99 1.92zm-136.2 -256.22c0.03,-30.3 -4.91,-33.08 11.44,-34.07 5.29,12.16 2.7,69.15 2.74,89.05 0.08,50.98 -1.44,30.54 9.41,44.61 6.03,7.82 2.96,7.57 6.63,14.23 4.32,7.84 15.24,13.28 23.15,18.84 22.52,15.86 46.53,27.64 42.2,41.36 -17.31,3.94 -52.38,-37.11 -68.27,-41.72 -7.37,-2.15 -14.26,4.63 -30.78,3.68 -17.44,-19.15 -17.6,-30.3 3.4,-43.57l0.08 -92.41zm186.78 110.47c4.13,-6.73 21.98,-7.55 17.74,6.96 -2.26,7.74 -16.78,12.04 -17.74,-6.96zm-50.52 -137.07c5.83,-1.84 7.51,-1.02 12.22,1.29 2.82,13.16 -0.01,17.68 -13.54,13.53 -4.06,-10.07 -4.65,-6.3 1.32,-14.82zm-259.2 -1.61c8.09,5.87 8.89,7.29 4.69,17.14 -14.17,2.35 -16.04,0.69 -15.37,-13.6l10.68 -3.54zm124.75 -37.12c-4.26,-9.31 -6.04,-13.54 6.16,-18.19 10.61,3.99 11.41,8.06 6.58,17.79l-12.74 0.4zm-138.58 31.81c-5.07,9.95 -12.27,17.23 -18.39,27.46 -6.53,10.91 -10.86,19.98 -15.12,32.09 -9.24,26.29 -13.37,48.01 -13.04,79.24 9.81,0.88 10.46,1.29 12.9,9.93 -3.94,8.03 0.88,5.16 -9.63,7.88 -1.87,17.99 9.94,50.65 16.29,64.48 4.27,9.3 10.07,18.54 15.26,26.55 5.66,8.74 14.17,16.4 17.89,24.42l12.34 0.93 3.47 11.74c15.21,21.42 72.15,49.11 109.68,52.63 0.04,-16.42 -0.9,-1.21 4.67,-7.97l13.51 -3.26 4.97 13.39c22.26,1.6 49.54,-3.75 68.94,-9.57 24.02,-7.21 34.36,-16.04 54.12,-25.94 16.71,-8.26 37.86,-38.34 48.42,-57.53 92.78,-168.61 -80.64,-368 -265.59,-289.09 -19.78,8.44 -53.03,28.33 -60.69,42.62z"/>
   <path class="fil1" d="M410.42 529.92l2.67 -0.02 97.93 0.03 -0.22 89.3 -99.32 -0.77 -1.06 -88.54zm-301.03 90.77l0 -35.5c0.29,-3.26 0.66,-6.4 1.1,-9.35 4.62,-30.52 1.33,-70.39 -0.96,-98.11l-0.14 -1.75 0 -97.6 0 -96.03c3.44,-13.76 14.69,-8.7 47.13,-8.7l654.52 0 0 18.38c-36.53,0.15 -53.51,7.66 -83.62,10.44l-56.76 0.36 -0.9 28.26c-3.45,4.08 -22.69,18.22 -28.74,22.11 -0.14,-9.2 -0.22,-18.07 -0.01,-27.27 0.55,-23.06 0.01,-18.89 -4.11,-23.07l-97.15 0.76 -0.21 88.38 67.2 -0.72c-3.52,10.46 -9.24,14.88 -11.52,24.37 -52.26,1.22 -55.38,-6.29 -55.98,12.11l0.01 66.18c0.56,24.75 12.78,3.28 25.79,16.38l-0.47 19.32 -25.03 1.26 0.26 88.02 43.14 0.19c8.52,23.39 23.65,39.76 32.29,57.73 -135.45,0 -270.9,0 -406.35,0 -35.71,0 -69.42,4.7 -87.21,-14.89 -6.83,-7.52 -10.75,-23.63 -12.28,-41.26zm171.66 -89.04c14.73,-4.44 80.45,-1.57 100.58,-1.5l-0.03 88.99 -101.41 0.01 0.86 -87.5zm-131.96 -1.3l103.75 -1.3 0.35 89.94c-22.82,2.27 -82.44,3.65 -103.38,-0.9l-0.72 -87.74zm261.48 -114.33l100.47 -0.32c0.02,20.75 3.96,74.32 -2.23,89.58l-97.41 0.98 -0.83 -90.24zm-127.98 -0.1l97.84 0.23 1.12 89.59 -99.51 0.31c-2.58,-13.22 -2.41,-77.38 0.55,-90.13zm-131.15 77.66l0.71 -77.12 99.99 -0.82c2.53,17.34 3.29,76.12 -0.48,89.37l-90.18 1.64c-12.28,-1.27 -9.72,-1.14 -10.04,-13.07zm259.09 -154.47l0 -26.18 0.11 -10.28 99.61 -0.15 0.73 89.47 -100.48 -0.07 0.03 -52.79zm-129.12 -36.6l100.1 0.05 0.15 89.35 -100.71 0.07 0.46 -89.47z"/>
   <path class="fil2" d="M109.39 203.24l701.65 -0.19c0,-38.69 6.56,-59.12 -13.36,-80.97 -18.31,-20.08 -62.71,-13.37 -104.45,-13.37l-0.23 23.62c2.43,45.06 0.51,52.26 -36.35,52.42 -49.7,0.21 -41.97,-5.13 -41.97,-76.04l-308.93 0 0 65.46c-15.01,10.04 -11.04,10.57 -36.63,10.57 -47.22,0 -39.3,-4.19 -39.3,-76.03 -30.58,0 -80.8,-6.7 -100.02,7.33 -14.92,10.89 -19.31,25.28 -20.41,43.8l0 43.4z"/>
   <path class="fil3" d="M936.31 685.51c-8.61,16.02 -46.03,33 -62.03,38.86 -174.5,63.98 -339.48,-115.87 -260.34,-283.84 10.11,-21.45 26.84,-50.24 44.51,-59.02 7.66,-14.29 40.91,-34.18 60.69,-42.62 184.95,-78.91 358.37,120.48 265.59,289.09 -10.56,19.19 -31.71,49.27 -48.42,57.53zm102.51 -171.27l0 8.62c-2.91,222.33 -241.36,306.05 -385.23,191 -7.04,-5.64 -15.44,-11.38 -21.25,-18.02 -7.53,-8.6 -7.65,-11.67 -17.11,-19 -8.64,-17.97 -23.77,-34.34 -32.29,-57.73 -11.25,-30.64 -15.09,-53.1 -18.37,-89.47l0.47 -19.32c5.49,-14.23 5.54,-36.55 11.03,-52.79l19.15 -41.88c2.28,-9.49 8,-13.91 11.52,-24.37 7.21,-6.06 24.38,-24.29 28.88,-31.28 5.84,-9.08 5.15,-44.96 1.28,-57.14 4.12,4.18 4.66,0.01 4.11,23.07 -0.21,9.2 -0.13,18.07 0.01,27.27 6.05,-3.89 25.29,-18.03 28.74,-22.11 9.96,-4.48 18.62,-10.04 29.27,-15.04 9.66,-4.53 21.29,-7.49 28.39,-13.58 30.11,-2.78 47.09,-10.29 83.62,-10.44 48.37,-0.37 107.82,24 139.35,51.73 23.49,20.65 9.3,5.09 29.02,28.57 3.62,4.31 4.87,5.03 8.59,9.74 27.35,34.72 49.52,79.5 50.82,132.17z"/>
   <polygon class="fil4" points="109.39,231.5 811.04,231.76 811.04,203.05 109.39,203.24 "/>
   <polygon class="fil2" points="811.04,231.76 109.39,231.5 109.39,257.95 811.04,257.95 "/>
   <path class="fil5" d="M936.31 685.51c-19.76,9.9 -30.1,18.73 -54.12,25.94 -19.4,5.82 -46.68,11.17 -68.94,9.57 -5.85,4.18 -9.32,6.36 -18.09,3.04l-0.39 -13.17c-5.57,6.76 -4.63,-8.45 -4.67,7.97 -37.53,-3.52 -94.47,-31.21 -109.68,-52.63 -4.21,2.56 -9.73,9.17 -16.15,2.96 -5.47,-5.28 -1.55,-11.51 0.34,-15.63 -3.72,-8.02 -12.23,-15.68 -17.89,-24.42 -5.19,-8.01 -10.99,-17.25 -15.26,-26.55 -6.35,-13.83 -18.16,-46.49 -16.29,-64.48l-8.25 -2.42c-0.91,-11.63 -1.65,-9.13 4.98,-15.39 -0.33,-31.23 3.8,-52.95 13.04,-79.24 4.26,-12.11 8.59,-21.18 15.12,-32.09 6.12,-10.23 13.32,-17.51 18.39,-27.46 -17.67,8.78 -34.4,37.57 -44.51,59.02 -79.14,167.97 85.84,347.82 260.34,283.84 16,-5.86 53.42,-22.84 62.03,-38.86z"/>
   <path class="fil6" d="M149.81 618.09c20.94,4.55 80.56,3.17 103.38,0.9l-0.35 -89.94 -103.75 1.3 0.72 87.74z"/>
   <path class="fil6" d="M151.44 493.58c0.32,11.93 -2.24,11.8 10.04,13.07l90.18 -1.64c3.77,-13.25 3.01,-72.03 0.48,-89.37l-99.99 0.82 -0.71 77.12z"/>
   <path class="fil6" d="M411.4 506.26l97.41 -0.98c6.19,-15.26 2.25,-68.83 2.23,-89.58l-100.47 0.32 0.83 90.24z"/>
   <path class="fil7" d="M280.19 619.15l101.41 -0.01 0.03 -88.99c-20.13,-0.07 -85.85,-2.94 -100.58,1.5l-0.86 87.5z"/>
   <path class="fil6" d="M282.59 415.92c-2.96,12.75 -3.13,76.91 -0.55,90.13l99.51 -0.31 -1.12 -89.59 -97.84 -0.23z"/>
   <polygon class="fil6" points="280.95,391.98 381.66,391.91 381.51,302.56 281.41,302.51 "/>
   <polygon class="fil6" points="410.5,391.9 510.98,391.97 510.25,302.5 410.64,302.65 410.53,312.93 410.53,339.11 "/>
   <polygon class="fil6" points="411.48,618.46 510.8,619.23 511.02,529.93 413.09,529.9 410.42,529.92 "/>
   <path class="fil6" d="M606.74 391.28c7.21,-6.06 24.38,-24.29 28.88,-31.28 5.84,-9.08 5.15,-44.96 1.28,-57.14l-97.15 0.76 -0.21 88.38 67.2 -0.72z"/>
   <path class="fil8" d="M248.15 82.53l-2.93 68.35c0.35,19.01 -1.84,15.43 42.2,15.43l0 -107.34 -39.27 0 0 23.56z"/>
   <path class="fil3" d="M806.93 536.73c-15.12,3.43 -17.59,-9.32 -9.26,-14.72 8.06,-5.22 18.78,3.18 9.26,14.72zm-11.71 -121.7l-0.08 92.41c-21,13.27 -20.84,24.42 -3.4,43.57 16.52,0.95 23.41,-5.83 30.78,-3.68 15.89,4.61 50.96,45.66 68.27,41.72 4.33,-13.72 -19.68,-25.5 -42.2,-41.36 -7.91,-5.56 -18.83,-11 -23.15,-18.84 -3.67,-6.66 -0.6,-6.41 -6.63,-14.23 -10.85,-14.07 -9.33,6.37 -9.41,-44.61 -0.04,-19.9 2.55,-76.89 -2.74,-89.05 -16.35,0.99 -11.41,3.77 -11.44,34.07z"/>
   <path class="fil9" d="M633.01 164.32l41.89 -0.7c-7.54,-14.02 -2.85,-82.06 -2.18,-103.14l-37.53 -0.11 -0.61 100.11c-0.1,0.51 -0.65,2.31 -0.73,1.96 -0.09,-0.33 -0.53,1.27 -0.84,1.88z"/>
   <path class="fil7" d="M565.04 510.32c5.49,-14.23 5.54,-36.55 11.03,-52.79l19.15 -41.88c-52.26,1.22 -55.38,-6.29 -55.98,12.11l0.01 66.18c0.56,24.75 12.78,3.28 25.79,16.38z"/>
   <path class="fil6" d="M582.94 619.11c-11.25,-30.64 -15.09,-53.1 -18.37,-89.47l-25.03 1.26 0.26 88.02 43.14 0.19z"/>
   <path class="fil6" d="M669.76 331.09c9.96,-4.48 18.62,-10.04 29.27,-15.04 9.66,-4.53 21.29,-7.49 28.39,-13.58l-56.76 0.36 -0.9 28.26z"/>
   <path class="fil10" d="M633.01 164.32c0.31,-0.61 0.75,-2.21 0.84,-1.88 0.08,0.35 0.63,-1.45 0.73,-1.96l0.61 -100.11 37.53 0.11c-0.67,21.08 -5.36,89.12 2.18,103.14l0 -104.65c-20.72,-4.83 -23.09,-1.56 -41.89,0l0 105.35z"/>
   <path class="fil3" d="M797.03 349.7l12.74 -0.4c4.83,-9.73 4.03,-13.8 -6.58,-17.79 -12.2,4.65 -10.42,8.88 -6.16,18.19z"/>
   <path class="fil3" d="M680.42 666.23l-3.47 -11.74 -12.34 -0.93c-1.89,4.12 -5.81,10.35 -0.34,15.63 6.42,6.21 11.94,-0.4 16.15,-2.96z"/>
   <path class="fil3" d="M982 525.5c0.96,19 15.48,14.7 17.74,6.96 4.24,-14.51 -13.61,-13.69 -17.74,-6.96z"/>
   <path class="fil3" d="M661.6 390.36c-0.67,14.29 1.2,15.95 15.37,13.6 4.2,-9.85 3.4,-11.27 -4.69,-17.14l-10.68 3.54z"/>
   <path class="fil3" d="M615.17 538.11c10.51,-2.72 5.69,0.15 9.63,-7.88 -2.44,-8.64 -3.09,-9.05 -12.9,-9.93 -6.63,6.26 -5.89,3.76 -4.98,15.39l8.25 2.42z"/>
   <path class="fil3" d="M931.42 671.25l12.99 -1.92c3.12,-26.99 -26.71,-18.08 -12.99,1.92z"/>
   <path class="fil3" d="M794.77 710.89l0.39 13.17c8.77,3.32 12.24,1.14 18.09,-3.04l-4.97 -13.39 -13.51 3.26z"/>
   <path class="fil3" d="M931.48 388.43c-5.97,8.52 -5.38,4.75 -1.32,14.82 13.53,4.15 16.36,-0.37 13.54,-13.53 -4.71,-2.31 -6.39,-3.13 -12.22,-1.29z"/>
   <path class="fil0" d="M806.93 536.73c9.52,-11.54 -1.2,-19.94 -9.26,-14.72 -8.33,5.4 -5.86,18.15 9.26,14.72z"/>
  </g>
 </g>
</svg>
