<?xml version="1.0" encoding="UTF-8"?>
<!DOCTYPE svg PUBLIC "-//W3C//DTD SVG 1.1//EN" "http://www.w3.org/Graphics/SVG/1.1/DTD/svg11.dtd">
<!-- Creator: CorelDRAW 2019 (64-Bit) -->
<svg xmlns="http://www.w3.org/2000/svg" xml:space="preserve" width="80mm" height="40mm" version="1.1" style="shape-rendering:geometricPrecision; text-rendering:geometricPrecision; image-rendering:optimizeQuality; fill-rule:evenodd; clip-rule:evenodd"
viewBox="0 0 8000 4000"
 xmlns:xlink="http://www.w3.org/1999/xlink">
 <defs>
  <style type="text/css">
   <![CDATA[
    .fil6 {fill:#000066}
    .fil4 {fill:#003399}
    .fil3 {fill:#115586}
    .fil7 {fill:#336699}
    .fil8 {fill:#596D80}
    .fil2 {fill:#6699FE}
    .fil9 {fill:#B5B5CA}
    .fil5 {fill:#DDDDDD}
    .fil1 {fill:#E6E6E6}
    .fil10 {fill:#FEFEFE}
    .fil0 {fill:white}
   ]]>
  </style>
 </defs>
 <g id="Capa_x0020_1">
  <metadata id="CorelCorpID_0Corel-Layer"/>
  <g id="_2417864456400">
   <path class="fil0" d="M5931.96 3323.32c60.81,-34.01 102.74,60.88 46.33,86.74 -60.57,27.75 -102.81,-55.15 -46.33,-86.74zm-737.1 -1332.67c0,-46.18 -19.01,-147.57 40.77,-142.71 52.45,4.27 34.46,103.08 34.45,149.1l0.44 534.47c61.55,34.59 62.73,38.91 83,115.08 6.64,24.93 8.62,17.6 48.7,46l278.09 200.68c19.37,13.98 47.69,25.57 39.81,59.15 -6.46,27.56 -32.07,33.69 -59.5,18.43 -46.11,-25.64 -292.32,-219.06 -335.23,-239.4 -34.92,18.88 -130.09,84.58 -194.31,-16.75 -49.69,-78.4 -7.19,-140.3 63.37,-183.95l0.41 -540.1zm1041.01 614.15c58.23,-25.73 89.65,62.63 40.09,87.73 -28.65,14.5 -59.7,0.48 -68.23,-21.39 -20.83,-53.36 20.67,-63.03 28.14,-66.34zm-298.58 -718.67c66.13,-27.92 91.92,73.03 37.18,91.49 -69.18,23.35 -89.02,-69.61 -37.18,-91.49zm-1434.4 1.17c56.82,-30.02 97.54,67.16 41.3,89.41 -61.67,24.39 -106.28,-55.08 -41.3,-89.41zm712.1 -295.47c61.58,-34.9 100.65,61.85 47.76,87.45 -61.71,29.85 -105.04,-54.99 -47.76,-87.45zm-734.47 233.26c-9.99,25.07 -126.3,143.06 -195.51,325.59 -44.79,118.15 -93.2,307.85 -77.11,449.33 79.93,-3.94 89.7,80.23 24.26,96.81 -1.1,0.84 -2.83,0.77 -3.26,2.54 -0.45,1.84 -2.71,2.19 -3.31,2.74l-10.09 9.87c18.76,123.39 51.87,238.7 101.08,338.71 25.35,51.51 51.38,95.93 81.62,141.62 15.91,24.02 29.39,41.95 45.73,62.85 17.78,22.73 37.67,41.09 52.41,65.52 58.83,-13.28 66.53,8.58 78.3,56.12 -0.75,24.45 -1.05,20.62 46.72,58.32 167.95,132.59 334.55,204.16 557.22,240.13 0.06,-18.7 3.51,-20.4 11.84,-31.27 39.11,-53.1 89.54,-41.24 100.01,34.69 52.13,30.74 325.85,-30.7 383.69,-49.95 195.8,-65.11 217.58,-111.44 300.15,-148.76 63.8,-24.76 202.3,-218.63 251.95,-314.03 65.37,-125.64 111.08,-272.41 123.18,-437.82 12.33,-168.63 -16.39,-342.53 -71.71,-482.86 -50.43,-127.92 -138.02,-272.05 -214.76,-347.28 -48.9,-47.95 -85.3,-88.02 -145.75,-135.23 -168.45,-131.56 -380.91,-216.66 -610.95,-231.06 -174.31,-10.91 -340.57,17.89 -485.56,75.37 -68.8,27.28 -128.41,59.47 -186.24,94.73 -43.66,26.62 -135.79,91.1 -153.91,123.32z"/>
   <path class="fil1" d="M3122.37 3126.89l-0.02 -474.35 539.66 0.13 -0.83 480.61 -538.81 -6.39zm-697.28 -474.25l539.89 0.8 -0.71 479.73 -7.11 0 -536.2 0 4.13 -480.53zm-688.61 2l526.34 -2.4 6.45 53.34c-1.07,119.9 6.3,330.69 -1.49,427.42 -60.21,7.86 -499.77,11 -539.67,-2.65 -1.78,-79.44 -0.53,-160.08 -0.6,-239.64l-0.37 -211.06c2.73,-33.51 -1.26,-14.29 9.34,-25.01zm1385.5 -614.22c80.28,0 497.8,-8.84 540.04,4.5l0.59 470.88c-37.52,14.82 -463.64,5.26 -539.5,5.26l-1.13 -480.64zm-696.67 0l539.76 0.91 -1.14 479.83 -530.2 0 -10 -0.01 1.58 -480.73zm-697.89 3.51c37.81,-8.83 465.87,-3.51 540.37,-3.51l0.22 478.92c-57.88,6.33 -508.18,8.45 -538.33,-3.21l-2.26 -472.2zm1394.92 -155.41l0.79 -460.19 536.21 0 2.49 480.33 -539.52 -0.13 0.03 -20.01zm-697.24 0l1.04 -460.19 538.9 0.4 -0.11 479.93 -540.77 0 0.94 -20.14zm1805.2 1550.16c-34.95,-44.9 -69.28,-92.25 -99.37,-145.13 -29.82,-52.45 -52.19,-107.15 -81.04,-160.57l-230.16 -0.26 -0.44 -479.68 132.47 -0.5 7.22 -130.99 -139.62 -0.61 -0.04 -479.92 285.28 -0.98c14.26,-20.92 74.64,-117.75 80.15,-135.15 -68.17,13.03 -283.68,4.19 -365.52,2.75l0.74 -479.24 534.11 0.64c9.07,14.84 4.33,-0.02 6.39,25.21 4.4,53.9 -6.55,187.47 1.72,253.99 24.57,-17.62 47.07,-39.52 72.39,-59.42 108.29,-85.05 78.6,-24.72 81.95,-182.1 0.73,-34.22 2.7,-29.26 10.56,-36.91l315.83 -2.02c64.94,-9.99 130,-32.39 202.66,-42.63 75.49,-10.63 152.7,-14.44 230.53,-12.99l-3.56 -100.47 -3761.36 0.68c-9.58,62.17 -3.37,509.09 -3.29,609.76 0.33,401.15 5.74,827.5 -0.14,1225.6 -2.89,195.1 37.33,329.37 274.81,330.85l1838.47 -0.95c198.04,0 413.38,-8 609.26,1.04z"/>
   <path class="fil2" d="M1507.89 752.25l0.54 140.74 3767.62 -1.29c-2.48,-92.9 4.26,-187.99 -0.6,-280.12 -2.28,-43.21 -11.24,-77.8 -30.87,-110.42 -18.25,-30.33 -54.99,-58.1 -61.95,-74.78 -38.46,-13.18 -50.46,-29.65 -104.85,-38.38 -53.81,-8.64 -398.53,-7.02 -431.06,-1.61 -11.94,96.2 5.26,205.29 -1.43,302.42 -7.87,114.15 -107.92,104.41 -213.57,104.53 -106.18,0.11 -199.75,12.26 -210.15,-98.55 -7.94,-84.59 12.44,-240.94 -3.61,-309.59l-1653.22 -0.97c-11.5,94.23 5.43,208.17 -1.64,304.6 -8.6,117.47 -106.02,104.42 -212.35,104.52 -100.31,0.08 -200.81,9.59 -211.32,-98.35 -9.53,-97.97 11.79,-214.87 -2.42,-309.87 -88.85,-5.71 -407.92,-9.6 -477,14.7 -59.37,20.89 -104.64,67.06 -129.72,119.37 -32.04,66.85 -23.08,155.72 -22.4,233.05z"/>
   <path class="fil3" d="M4480.52 1825.09c18.12,-32.22 110.25,-96.7 153.91,-123.32 57.83,-35.26 117.44,-67.45 186.24,-94.73 144.99,-57.48 311.25,-86.28 485.56,-75.37 230.04,14.4 442.5,99.5 610.95,231.06 60.45,47.21 96.85,87.28 145.75,135.23 76.74,75.23 164.33,219.36 214.76,347.28 55.32,140.33 84.04,314.23 71.71,482.86 -12.1,165.41 -57.81,312.18 -123.18,437.82 -49.65,95.4 -188.15,289.27 -251.95,314.03 -24.28,60.06 -269.27,188.96 -342.47,215.39 -387.96,140.11 -760.2,78.67 -1084.79,-160.32 -287.9,-211.98 -454.53,-592.62 -432.81,-955.21 13.72,-229.26 96.67,-439.47 226.65,-609.88 30.92,-40.54 102.64,-128.97 139.67,-144.84zm362.4 -397.3c-8.91,6.96 -144.84,59.47 -169.24,70.56 -34.7,15.78 -126.6,64.58 -147.32,85.25l0.73 -153.79c-7.86,7.65 -9.83,2.69 -10.56,36.91 -3.35,157.38 26.34,97.05 -81.95,182.1 -25.32,19.9 -47.82,41.8 -72.39,59.42 -8.27,-66.52 2.68,-200.09 -1.72,-253.99 -2.06,-25.23 2.68,-10.37 -6.39,-25.21 0,55.28 -0.05,110.56 -0.11,165.85 -0.07,73.58 10.98,111.04 -18.73,139.6l-150.49 170.4c-5.51,17.4 -65.89,114.23 -80.15,135.15 -31.77,75.24 -62.15,133.26 -91.61,221.04 -27.69,82.45 -43.75,168.08 -54.01,260.47l-7.22 130.99c16.65,200.15 29.12,308.55 98.13,480.44 28.85,53.42 51.22,108.12 81.04,160.57 30.09,52.88 64.42,100.23 99.37,145.13 35.22,35.34 59.17,71.88 94.93,107.48 32.56,32.41 71.26,64.97 109.35,94.9 73.03,57.38 154.26,112.98 252.37,156.41 207.43,91.81 427.68,143.2 688.69,112.25 989.45,-117.33 1408.86,-1217.72 935.43,-1940.75 -237.61,-362.87 -578.12,-569.27 -1034.96,-596.8 -77.83,-1.45 -155.04,2.36 -230.53,12.99 -72.66,10.24 -137.72,32.64 -202.66,42.63z"/>
   <polygon class="fil4" points="1509.12,1043.77 5275.18,1045.51 5276.05,891.7 1508.43,892.99 "/>
   <polygon class="fil2" points="5275.18,1045.51 1509.12,1043.77 1508.8,1187.45 5274.97,1187.77 "/>
   <path class="fil5" d="M5974.27 3479.95c-82.57,37.32 -104.35,83.65 -300.15,148.76 -57.84,19.25 -331.56,80.69 -383.69,49.95 -18.18,15.03 -28.73,39.8 -63.46,31.82 -31.7,-7.29 -38.14,-29.88 -36.55,-66.51 -8.33,10.87 -11.78,12.57 -11.84,31.27 -222.67,-35.97 -389.27,-107.54 -557.22,-240.13 -47.77,-37.7 -47.47,-33.87 -46.72,-58.32 -16.46,16.42 -43.78,65.73 -86.52,25.46 -32.8,-30.91 -9,-63.67 8.22,-81.58 -14.74,-24.43 -34.63,-42.79 -52.41,-65.52 -16.34,-20.9 -29.82,-38.83 -45.73,-62.85 -30.24,-45.69 -56.27,-90.11 -81.62,-141.62 -49.21,-100.01 -82.32,-215.32 -101.08,-338.71l10.09 -9.87c0.6,-0.55 2.86,-0.9 3.31,-2.74 0.43,-1.77 2.16,-1.7 3.26,-2.54 -31.03,-0.62 -50.6,-7.61 -55.9,-37.16 -6.88,-38.37 18.18,-48.94 31.64,-59.65 -16.09,-141.48 32.32,-331.18 77.11,-449.33 69.21,-182.53 185.52,-300.52 195.51,-325.59 -37.03,15.87 -108.75,104.3 -139.67,144.84 -129.98,170.41 -212.93,380.62 -226.65,609.88 -21.72,362.59 144.91,743.23 432.81,955.21 324.59,238.99 696.83,300.43 1084.79,160.32 73.2,-26.43 318.19,-155.33 342.47,-215.39z"/>
   <path class="fil6" d="M3123.11 2521.06c75.86,0 501.98,9.56 539.5,-5.26l-0.59 -470.88c-42.24,-13.34 -459.76,-4.5 -540.04,-4.5l1.13 480.64z"/>
   <path class="fil6" d="M1729.68 2516.13c30.15,11.66 480.45,9.54 538.33,3.21l-0.22 -478.92c-74.5,0 -502.56,-5.32 -540.37,3.51l2.26 472.2z"/>
   <polygon class="fil7" points="2420.96,3133.17 2957.16,3133.17 2964.27,3133.17 2964.98,2653.44 2425.09,2652.64 "/>
   <polygon class="fil6" points="2423.73,2521.15 2433.73,2521.16 2963.93,2521.16 2965.07,2041.33 2425.31,2040.42 "/>
   <polygon class="fil6" points="2424.16,1908.66 2964.93,1908.66 2965.04,1428.73 2426.14,1428.33 2425.1,1888.52 "/>
   <polygon class="fil6" points="3122.31,1908.53 3661.83,1908.66 3659.34,1428.33 3123.13,1428.33 3122.34,1888.52 "/>
   <polygon class="fil6" points="3661.18,3133.28 3662.01,2652.67 3122.35,2652.54 3122.37,3126.89 "/>
   <path class="fil6" d="M4184.75 1904.89l150.49 -170.4c29.71,-28.56 18.66,-66.02 18.73,-139.6 0.06,-55.29 0.11,-110.57 0.11,-165.85l-534.11 -0.64 -0.74 479.24c81.84,1.44 297.35,10.28 365.52,-2.75z"/>
   <path class="fil3" d="M5211.83 2609.34c60.24,-30.54 89.48,56.62 45.47,79.63 -56.92,29.75 -103.63,-50.16 -45.47,-79.63zm-17.38 -78.59c-70.56,43.65 -113.06,105.55 -63.37,183.95 64.22,101.33 159.39,35.63 194.31,16.75 42.91,20.34 289.12,213.76 335.23,239.4 27.43,15.26 53.04,9.13 59.5,-18.43 7.88,-33.58 -20.44,-45.17 -39.81,-59.15l-278.09 -200.68c-40.08,-28.4 -42.06,-21.07 -48.7,-46 -20.27,-76.17 -21.45,-80.49 -83,-115.08l-0.44 -534.47c0.01,-46.02 18,-144.83 -34.45,-149.1 -59.78,-4.86 -40.77,96.53 -40.77,142.71l-0.41 540.1z"/>
   <polygon class="fil8" points="2242.8,688.45 2457.91,689.72 2459.37,116.79 2244.87,116.09 "/>
   <polygon class="fil8" points="4328.83,690.36 4536.82,687.55 4538.34,118.81 4328.47,118.58 "/>
   <path class="fil7" d="M3958.98 2521.55c10.26,-92.39 26.32,-178.02 54.01,-260.47 29.46,-87.78 59.84,-145.8 91.61,-221.04l-285.28 0.98 0.04 479.92 139.62 0.61z"/>
   <path class="fil6" d="M4049.89 3132.98c-69.01,-171.89 -81.48,-280.29 -98.13,-480.44l-132.47 0.5 0.44 479.68 230.16 0.26z"/>
   <path class="fil6" d="M4842.92 1427.79l-315.83 2.02 -0.73 153.79c20.72,-20.67 112.62,-69.47 147.32,-85.25 24.4,-11.09 160.33,-63.6 169.24,-70.56z"/>
   <path class="fil9" d="M4328.83 690.36l-0.36 -571.78 209.87 0.23 -1.52 568.74c16.26,-24.52 11.24,-505.54 6.41,-570.21 -36.76,-14 -176.16,-9.21 -219.28,-2.65 -8.59,71.5 -2.27,331.02 -1.74,433.32 0.12,23.4 0.19,46.81 0.21,70.22 0.03,26.43 -4.07,52.91 6.41,72.13z"/>
   <path class="fil3" d="M5214.99 1591.83c-57.28,32.46 -13.95,117.3 47.76,87.45 52.89,-25.6 13.82,-122.35 -47.76,-87.45z"/>
   <path class="fil3" d="M4502.89 1887.3c-64.98,34.33 -20.37,113.8 41.3,89.41 56.24,-22.25 15.52,-119.43 -41.3,-89.41z"/>
   <path class="fil3" d="M4574.64 3376.79c-11.77,-47.54 -19.47,-69.4 -78.3,-56.12 -17.22,17.91 -41.02,50.67 -8.22,81.58 42.74,40.27 70.06,-9.04 86.52,-25.46z"/>
   <path class="fil3" d="M5931.96 3323.32c-56.48,31.59 -14.24,114.49 46.33,86.74 56.41,-25.86 14.48,-120.75 -46.33,-86.74z"/>
   <path class="fil3" d="M5937.29 1886.13c-51.84,21.88 -32,114.84 37.18,91.49 54.74,-18.46 28.95,-119.41 -37.18,-91.49z"/>
   <path class="fil3" d="M6235.87 2604.8c-7.47,3.31 -48.97,12.98 -28.14,66.34 8.53,21.87 39.58,35.89 68.23,21.39 49.56,-25.1 18.14,-113.46 -40.09,-87.73z"/>
   <path class="fil3" d="M4232.16 2696.82c65.44,-16.58 55.67,-100.75 -24.26,-96.81 -13.46,10.71 -38.52,21.28 -31.64,59.65 5.3,29.55 24.87,36.54 55.9,37.16z"/>
   <path class="fil3" d="M5190.42 3643.97c-1.59,36.63 4.85,59.22 36.55,66.51 34.73,7.98 45.28,-16.79 63.46,-31.82 -10.47,-75.93 -60.9,-87.79 -100.01,-34.69z"/>
   <path class="fil10" d="M5211.83 2609.34c-58.16,29.47 -11.45,109.38 45.47,79.63 44.01,-23.01 14.77,-110.17 -45.47,-79.63z"/>
   <path class="fil6" d="M1729.68 2516.13c30.15,11.66 480.45,9.54 538.33,3.21l-0.22 -478.92c-74.5,0 -502.56,-5.32 -540.37,3.51l2.26 472.2z"/>
   <path class="fil6" d="M1714.79 3131.22c31.16,11.82 496.58,9.67 556.4,3.25l-0.23 -485.61c-77,0 -519.42,-5.4 -558.51,3.56l2.34 478.8z"/>
  </g>
 </g>
</svg>
