<?xml version="1.0" encoding="UTF-8"?>
<!DOCTYPE svg PUBLIC "-//W3C//DTD SVG 1.1//EN" "http://www.w3.org/Graphics/SVG/1.1/DTD/svg11.dtd">
<!-- Creator: CorelDRAW 2019 (64-Bit) -->
<svg xmlns="http://www.w3.org/2000/svg" xml:space="preserve" width="80mm" height="40mm" version="1.1" style="shape-rendering:geometricPrecision; text-rendering:geometricPrecision; image-rendering:optimizeQuality; fill-rule:evenodd; clip-rule:evenodd"
viewBox="0 0 8000 4000"
 xmlns:xlink="http://www.w3.org/1999/xlink">
 <defs>
  <style type="text/css">
   <![CDATA[
    .str0 {stroke:#FEFEFE;stroke-width:20;stroke-miterlimit:22.9256}
    .fil1 {fill:#FEFEFE}
    .fil6 {fill:#000066}
    .fil5 {fill:#003399}
    .fil4 {fill:#115586}
    .fil7 {fill:#336699}
    .fil8 {fill:#596D80}
    .fil3 {fill:#6699FE}
    .fil9 {fill:#B5B5CA}
    .fil0 {fill:#DBDDDD}
    .fil2 {fill:#E6E6E6}
    .fil10 {fill:#FEFEFE}
    .fil11 {fill:white}
   ]]>
  </style>
 </defs>
 <g id="Capa_x0020_1">
  <metadata id="CorelCorpID_0Corel-Layer"/>
  <g id="_2419039030880">
   <path class="fil0" d="M6237.08 3402.14l-36.1 25.69c-12.8,9.21 -23.32,16.18 -35.87,24.89 -69.72,48.38 -159.12,91.44 -241.06,121.35 -125.96,45.97 -255.51,65.75 -390.28,64.82 -4.77,-0.03 -9.63,0.08 -14.4,-0.05 -7.87,-0.22 7.2,0.06 -12.72,0.34 -36.26,0.38 -54.75,-3.01 -91.84,-6.18 -7.31,-1.78 -4.86,-2.38 -14.69,-3.57l-85.51 -15.06c-141.9,-29.27 -281.14,-91.1 -397.16,-171.39 -30.45,-21.07 -70.04,-50.58 -97.05,-74.55 -7.66,-6.79 -21.32,-17.81 -26.89,-28.29 12.98,12.76 -48.44,-32.27 -68.11,-66.49 -9.51,-5.58 -43.64,-48.21 -52.43,-59.71 -91.64,-119.9 -145.75,-222.16 -192.29,-370.01 -16.48,-52.36 -33.76,-133.25 -38.55,-190.93 -5.7,-31.04 -9.6,-72.94 -7.73,-99.31 0.34,-184.33 26.4,-318.35 90.58,-470.5 27.15,-64.39 63.86,-129.5 99.37,-181.28 21.01,-30.63 80.96,-110.99 108.4,-136.46 6.19,-5.74 12.66,-11.22 16.41,-18.68 -14.2,4.94 -100.92,90.69 -112.91,104.34l-33.29 38.25c-88.55,100.46 -166.53,244.01 -206.68,368.97 -78.49,244.28 -74.28,504 13.63,737.92 48.63,129.38 102.4,216.5 183.1,318.73 36.03,45.64 65.4,71.92 105.26,110.91 172.24,168.5 459.53,292.57 710.21,296.1 96.89,1.37 176.79,-2.13 266.44,-20.47 201.21,-41.16 387.54,-134.53 534.76,-272.08 7.8,-7.29 23.15,-18.26 27.4,-27.3z"/>
   <ellipse class="fil1 str0" cx="5484.12" cy="2595.17" rx="1110.7" ry="1123.02"/>
   <path class="fil2" d="M3355.25 3082.62l-0.02 -474.35 539.66 0.13 -0.83 480.61 -538.81 -6.39zm-697.28 -474.25l539.89 0.8 -0.71 479.73 -7.11 0 -536.2 0 4.13 -480.53zm-688.61 2l526.34 -2.4 6.45 53.34c-1.07,119.9 6.3,330.69 -1.49,427.42 -60.21,7.86 -499.77,11 -539.67,-2.65 -1.78,-79.44 -0.53,-160.08 -0.6,-239.64l-0.37 -211.06c2.73,-33.51 -1.26,-14.29 9.34,-25.01zm1385.5 -614.22c80.28,0 497.8,-8.84 540.04,4.5l0.59 470.88c-37.52,14.82 -463.64,5.26 -539.5,5.26l-1.13 -480.64zm-696.67 0l539.76 0.91 -1.14 479.83 -530.2 0 -10 -0.01 1.58 -480.73zm-697.89 3.51c37.81,-8.83 465.87,-3.51 540.37,-3.51l0.22 478.92c-57.88,6.33 -508.18,8.45 -538.33,-3.21l-2.26 -472.2zm1394.92 -155.41l0.79 -460.19 536.21 0 2.49 480.33 -539.52 -0.13 0.03 -20.01zm-697.24 0l1.04 -460.19 538.9 0.4 -0.11 479.93 -540.77 0 0.94 -20.14zm1805.2 1550.16c-34.95,-44.9 -69.28,-92.25 -99.37,-145.13 -29.82,-52.45 -52.19,-107.15 -81.04,-160.57l-230.16 -0.26 -0.44 -479.68 132.47 -0.5 7.22 -130.99 -139.62 -0.61 -0.04 -479.92 285.28 -0.98c14.26,-20.92 74.64,-117.75 80.15,-135.15 -68.17,13.03 -283.68,4.19 -365.52,2.75l0.74 -479.24 534.11 0.64c9.07,14.84 4.33,-0.02 6.39,25.21 4.4,53.9 -6.55,187.47 1.72,253.99 24.57,-17.62 47.07,-39.52 72.39,-59.42 108.29,-85.05 78.6,-24.72 81.95,-182.1 0.73,-34.22 2.7,-29.26 10.56,-36.91l315.83 -2.02c64.94,-9.99 130,-32.39 202.66,-42.63 75.49,-10.63 152.7,-14.44 230.53,-12.99l-3.56 -100.47 -3761.36 0.68c-9.58,62.17 -3.37,509.09 -3.29,609.76 0.33,401.15 5.74,827.5 -0.14,1225.6 -2.89,195.1 37.33,329.37 274.81,330.85l1838.47 -0.95c198.04,0 413.38,-8 609.26,1.04z"/>
   <path class="fil3" d="M1740.77 707.98l0.54 140.74 3767.62 -1.29c-2.48,-92.9 4.26,-187.99 -0.6,-280.12 -2.28,-43.21 -11.24,-77.8 -30.87,-110.42 -18.25,-30.33 -54.99,-58.1 -61.95,-74.78 -38.46,-13.18 -50.46,-29.65 -104.85,-38.38 -53.81,-8.64 -398.53,-7.02 -431.06,-1.61 -11.94,96.2 5.26,205.29 -1.43,302.42 -7.87,114.15 -107.92,104.41 -213.57,104.53 -106.18,0.11 -199.75,12.26 -210.15,-98.55 -7.94,-84.59 12.44,-240.94 -3.61,-309.59l-1653.22 -0.97c-11.5,94.23 5.43,208.17 -1.64,304.6 -8.6,117.47 -106.02,104.42 -212.35,104.52 -100.31,0.08 -200.81,9.59 -211.32,-98.35 -9.53,-97.97 11.79,-214.87 -2.42,-309.87 -88.85,-5.71 -407.92,-9.6 -477,14.7 -59.37,20.89 -104.64,67.06 -129.72,119.37 -32.04,66.85 -23.08,155.72 -22.4,233.05z"/>
   <path class="fil4" d="M4713.4 1780.82c18.12,-32.22 110.25,-96.7 153.91,-123.32 57.83,-35.26 117.44,-67.45 186.24,-94.73 144.99,-57.48 311.25,-86.28 485.56,-75.37 230.04,14.4 442.5,99.5 610.95,231.06 60.45,47.21 96.85,87.28 145.75,135.23 76.74,75.23 164.33,219.36 214.76,347.28 55.32,140.33 84.04,314.23 71.71,482.86 -12.1,165.41 -57.81,312.18 -123.18,437.82 -49.65,95.4 -188.15,289.27 -251.95,314.03 -24.28,60.06 -269.27,188.96 -342.47,215.39 -387.96,140.11 -760.2,78.67 -1084.79,-160.32 -287.9,-211.98 -454.53,-592.62 -432.81,-955.21 13.72,-229.26 96.67,-439.47 226.65,-609.88 30.92,-40.54 102.64,-128.97 139.67,-144.84zm362.4 -397.3c-8.91,6.96 -144.84,59.47 -169.24,70.56 -34.7,15.78 -126.6,64.58 -147.32,85.25l0.73 -153.79c-7.86,7.65 -9.83,2.69 -10.56,36.91 -3.35,157.38 26.34,97.05 -81.95,182.1 -25.32,19.9 -47.82,41.8 -72.39,59.42 -8.27,-66.52 2.68,-200.09 -1.72,-253.99 -2.06,-25.23 2.68,-10.37 -6.39,-25.21 0,55.28 -0.05,110.56 -0.11,165.85 -0.07,73.58 10.98,111.04 -18.73,139.6l-150.49 170.4c-5.51,17.4 -65.89,114.23 -80.15,135.15 -31.77,75.24 -62.15,133.26 -91.61,221.04 -27.69,82.45 -43.75,168.08 -54.01,260.47l-7.22 130.99c16.65,200.15 29.12,308.55 98.13,480.44 28.85,53.42 51.22,108.12 81.04,160.57 30.09,52.88 64.42,100.23 99.37,145.13 35.22,35.34 59.17,71.88 94.93,107.48 32.56,32.41 71.26,64.97 109.35,94.9 73.03,57.38 154.26,112.98 252.37,156.41 207.43,91.81 427.68,143.2 688.69,112.25 989.45,-117.33 1408.86,-1217.72 935.43,-1940.75 -237.61,-362.87 -578.12,-569.27 -1034.96,-596.8 -77.83,-1.45 -155.04,2.36 -230.53,12.99 -72.66,10.24 -137.72,32.64 -202.66,42.63z"/>
   <polygon class="fil5" points="1742,999.5 5508.06,1001.24 5508.93,847.43 1741.31,848.72 "/>
   <polygon class="fil3" points="5508.06,1001.24 1742,999.5 1741.68,1143.18 5507.85,1143.5 "/>
   <path class="fil6" d="M3355.99 2476.79c75.86,0 501.98,9.56 539.5,-5.26l-0.59 -470.88c-42.24,-13.34 -459.76,-4.5 -540.04,-4.5l1.13 480.64z"/>
   <path class="fil6" d="M1962.56 2471.86c30.15,11.66 480.45,9.54 538.33,3.21l-0.22 -478.92c-74.5,0 -502.56,-5.32 -540.37,3.51l2.26 472.2z"/>
   <polygon class="fil7" points="2653.84,3088.9 3190.04,3088.9 3197.15,3088.9 3197.86,2609.17 2657.97,2608.37 "/>
   <polygon class="fil6" points="2656.61,2476.88 2666.61,2476.89 3196.81,2476.89 3197.95,1997.06 2658.19,1996.15 "/>
   <polygon class="fil6" points="2657.04,1864.39 3197.81,1864.39 3197.92,1384.46 2659.02,1384.06 2657.98,1844.25 "/>
   <polygon class="fil6" points="3355.19,1864.26 3894.71,1864.39 3892.22,1384.06 3356.01,1384.06 3355.22,1844.25 "/>
   <polygon class="fil6" points="3894.06,3089.01 3894.89,2608.4 3355.23,2608.27 3355.25,3082.62 "/>
   <path class="fil6" d="M4417.63 1860.62l150.49 -170.4c29.71,-28.56 18.66,-66.02 18.73,-139.6 0.06,-55.29 0.11,-110.57 0.11,-165.85l-534.11 -0.64 -0.74 479.24c81.84,1.44 297.35,10.28 365.52,-2.75z"/>
   <polygon class="fil8" points="2475.68,644.18 2690.79,645.45 2692.25,72.52 2477.75,71.82 "/>
   <polygon class="fil8" points="4561.71,646.09 4769.7,643.28 4771.22,74.54 4561.35,74.31 "/>
   <path class="fil7" d="M4191.86 2477.28c10.26,-92.39 26.32,-178.02 54.01,-260.47 29.46,-87.78 59.84,-145.8 91.61,-221.04l-285.28 0.98 0.04 479.92 139.62 0.61z"/>
   <path class="fil6" d="M4282.77 3088.71c-69.01,-171.89 -81.48,-280.29 -98.13,-480.44l-132.47 0.5 0.44 479.68 230.16 0.26z"/>
   <path class="fil6" d="M5075.8 1383.52l-315.83 2.02 -0.73 153.79c20.72,-20.67 112.62,-69.47 147.32,-85.25 24.4,-11.09 160.33,-63.6 169.24,-70.56z"/>
   <path class="fil9" d="M4561.71 646.09l-0.36 -571.78 209.87 0.23 -1.52 568.74c16.26,-24.52 11.24,-505.54 6.41,-570.21 -36.76,-14 -176.16,-9.21 -219.28,-2.65 -8.59,71.5 -2.27,331.02 -1.74,433.32 0.12,23.4 0.19,46.81 0.21,70.22 0.03,26.43 -4.07,52.91 6.41,72.13z"/>
   <path class="fil10" d="M5444.71 2565.07c-58.16,29.47 -11.45,109.38 45.47,79.63 44.01,-23.01 14.77,-110.17 -45.47,-79.63z"/>
   <path class="fil6" d="M1962.56 2471.86c30.15,11.66 480.45,9.54 538.33,3.21l-0.22 -478.92c-74.5,0 -502.56,-5.32 -540.37,3.51l2.26 472.2z"/>
   <path class="fil6" d="M1947.67 3086.95c31.16,11.82 496.58,9.67 556.4,3.25l-0.23 -485.61c-77,0 -519.42,-5.4 -558.51,3.56l2.34 478.8z"/>
  </g>
  <g id="_2417794148368">
   <path class="fil4" d="M4561.18 2937.76c20.9,-6.61 234.26,-0.6 276.29,-1.85l30.45 -35.59c8.01,-7.98 8.23,-8.9 16.98,-15.54 69.96,-53.07 158.88,-61.18 234.33,-15.89 41.41,24.86 46.54,40.92 69.42,67.17l621.05 0.02c7.41,-6.87 14.02,-18.65 19.76,-25.61 30.29,-36.72 72.09,-50.91 80.97,-58.07l0 -713.73 -1348.27 -1.03 -0.98 800.12z"/>
   <path class="fil4" d="M6024.03 2336.96c37.71,-2.9 130.36,2.28 166.82,10.33 75.69,16.71 164.15,90.66 189.22,170.35 9.71,30.86 19.54,144.03 0.88,162.39 -16.37,16.1 -47.85,3.89 -70.18,-0.27l-226.37 -45.26c-26.06,-5.21 -53.12,-5.11 -59.38,-28.62 -3.54,-13.28 -2.04,-252.66 -0.99,-268.92zm-72.97 506.26c64.42,-17.03 135.93,15.87 169.73,47.36 39.83,37.09 65.88,75.42 71.06,154.03 10.55,2.87 174.9,2.49 189.41,-0.16 27.6,-5.04 46.68,-22.39 57.06,-40.23 15.83,-27.19 11.99,-51.46 11.99,-85.62 0,-71.01 4.57,-333.57 -4.61,-383.34 -20.78,-112.73 -94.11,-174.66 -164.64,-222.58 -37.09,-25.2 -85.95,-45.61 -143.47,-51.57 -57.69,-5.97 -127.76,-9.39 -186.21,-8.02l-0.32 590.13z"/>
   <path class="fil4" d="M4561.1 2114.2c224.21,3.34 451.03,0.1 675.47,0.1 67.06,0 661.79,2.62 673.88,-1.88l-0.07 -73.9 -1348.39 -0.9 -0.89 76.58z"/>
   <path class="fil11" d="M6024.03 2336.96c-1.05,16.26 -2.55,255.64 0.99,268.92 6.26,23.51 33.32,23.41 59.38,28.62l226.37 45.26c22.33,4.16 53.81,16.37 70.18,0.27 18.66,-18.36 8.83,-131.53 -0.88,-162.39 -25.07,-79.69 -113.53,-153.64 -189.22,-170.35 -36.46,-8.05 -129.11,-13.23 -166.82,-10.33z"/>
   <path class="fil4" d="M5968.42 2956.3c53.88,-10.49 98.7,28.77 106.73,73.01 9.67,53.33 -28.13,97.63 -71.95,106.06 -118.56,22.78 -153.34,-155.99 -34.78,-179.07zm-9.24 -84.59c-89.91,14.43 -165.2,95.3 -147.87,203.07 13.93,86.66 97.3,162.62 202.58,145.32 86.93,-14.27 162.19,-96.44 145.86,-201.52 -13.52,-87 -95.71,-163.7 -200.57,-146.87z"/>
   <path class="fil4" d="M4996.19 2956.31c53.97,-10.54 98.66,29.02 106.6,72.58 9.86,53.98 -27.7,97.98 -71.84,106.47 -118.86,22.87 -152.85,-155.98 -34.76,-179.05zm-4.13 -85.59c-91.09,11.4 -167.13,92.8 -153.96,198.03 11.1,88.64 94,165.69 197.51,152.25 89.58,-11.62 165.17,-92.65 152.84,-196.27 -10.69,-89.75 -92.95,-166.95 -196.39,-154.01z"/>
   <path class="fil4" d="M5219.61 3044.62c13.88,3.76 371.21,1.29 418.39,1.29 45.18,0 96.58,2.27 141.01,-0.35 1.85,-36.17 6.72,-47.78 15.21,-78.9l-589.76 0c8,30.27 13.5,41.94 15.15,77.96z"/>
   <path class="fil11" d="M5968.42 2956.3c-118.56,23.08 -83.78,201.85 34.78,179.07 43.82,-8.43 81.62,-52.73 71.95,-106.06 -8.03,-44.24 -52.85,-83.5 -106.73,-73.01z"/>
   <path class="fil11" d="M4996.19 2956.31c-118.09,23.07 -84.1,201.92 34.76,179.05 44.14,-8.49 81.7,-52.49 71.84,-106.47 -7.94,-43.56 -52.63,-83.12 -106.6,-72.58z"/>
   <path class="fil4" d="M4600.79 3045.91l196.94 0 9.04 -0.17c1.97,-36.28 6.74,-47.93 15.26,-79.07l-260.86 -0.02c-0.01,41.3 -8.59,79.26 39.62,79.26z"/>
  </g>
 </g>
</svg>
